<svg width="246" height="56" viewBox="0 0 246 56" fill="none" xmlns="http://www.w3.org/2000/svg">
<path d="M208 43.8101H201.6V14.8602H208V20.0802C216.08 12.0802 221.76 12.3801 226.68 20.8401C228.88 17.0401 231.74 14.2202 236.47 14.3502C241.2 14.4802 245.01 17.6101 245.27 22.5401C245.64 29.5401 245.36 36.6502 245.36 43.8502H238.9C238.9 43.0102 238.9 42.1302 238.9 41.2602C238.9 36.1802 238.98 31.1001 238.8 26.0301C238.72 23.6701 238.67 21.0302 235.59 20.2102C233.27 19.6102 230.52 20.9701 228.84 23.5101C226.66 26.8201 226.56 30.5601 226.62 34.3301C226.62 37.4801 226.62 40.6201 226.62 43.8701H220.12C220.12 40.9201 220.12 38.0302 220.12 35.1402C220.12 31.7302 220.05 28.3101 219.92 24.9001C219.84 23.0401 219.52 21.1801 217.44 20.4001C216.494 20.0499 215.468 19.9777 214.483 20.1921C213.498 20.4065 212.594 20.8986 211.88 21.6102C208.96 24.1402 208.05 27.6101 207.99 31.2601C207.93 35.4001 208 39.5401 208 43.8101Z" fill="#121212"/>
<path d="M69 41.2898V55.2898H62.74V14.9998H68.93L69.15 17.6398C71.33 16.6398 73.46 14.9698 75.81 14.5598C81.97 13.4998 87.37 17.1098 88.81 23.4698C89.5873 26.8585 89.7129 30.3642 89.18 33.7998C87.64 43.4198 76.73 47.5598 69 41.2898ZM68.73 29.5298C69.0247 31.2702 69.4288 32.9903 69.94 34.6798C70.2878 35.759 70.9607 36.7043 71.8665 37.3863C72.7723 38.0684 73.8667 38.4538 75 38.4898C77.68 38.6898 80 37.9398 81.35 35.4898C82.3573 33.7085 82.9156 31.7086 82.9766 29.6631C83.0376 27.6176 82.5994 25.588 81.7 23.7498C81.1434 22.5261 80.2083 21.5137 79.0325 20.8619C77.8568 20.2101 76.5027 19.9535 75.17 20.1298C73.8689 20.1843 72.6207 20.6605 71.6141 21.4868C70.6075 22.313 69.897 23.4443 69.59 24.7098C69.201 26.2991 68.8973 27.9081 68.68 29.5298H68.73Z" fill="#121212"/>
<path d="M27.31 14.7198C29.4463 14.618 31.5868 14.6447 33.72 14.7998C34.1491 14.95 34.5418 15.1887 34.8726 15.5005C35.2034 15.8124 35.4648 16.1903 35.64 16.6098C38.19 22.5598 40.64 28.6099 43.32 35.0999C44.79 31.0999 46.08 27.6899 47.37 24.2099C48.32 21.6399 49.37 19.0898 50.16 16.4698C50.2078 16.1653 50.3169 15.8735 50.4807 15.6123C50.6444 15.3511 50.8595 15.1258 51.1128 14.9501C51.3661 14.7744 51.6524 14.6518 51.9545 14.5899C52.2565 14.528 52.5679 14.528 52.87 14.5898C54.5 14.7098 56.15 14.5898 58.28 14.5898C57.11 17.4098 56.12 19.8298 55.11 22.2498C51.39 31.1398 47.73 40.0698 43.91 48.9298C40.66 56.4898 32.61 57.8299 26.72 51.6599L29.72 47.5999C30.0099 47.673 30.289 47.7839 30.55 47.9298C32.05 49.1098 33.83 50.9798 35.55 49.5598C37.27 48.1398 38.46 45.6398 39.63 43.4998C39.9 43.0098 39.22 41.9598 38.89 41.2098C35.1 32.5498 31.31 23.8698 27.31 14.7198Z" fill="#121212"/>
<path d="M158.79 14.3202C160.754 14.2933 162.703 14.669 164.517 15.424C166.331 16.179 167.97 17.2973 169.335 18.7101C170.7 20.1229 171.762 21.8002 172.454 23.6387C173.146 25.4772 173.454 27.438 173.36 29.4002C173.21 38.0202 166.88 44.4002 158.52 44.2502C150.16 44.1002 144 37.6602 144.18 29.0002C144.36 20.3402 150.39 14.2402 158.79 14.3202ZM151 30.0002C151.149 31.0927 151.366 32.1748 151.65 33.2402C152.047 34.7408 152.928 36.0688 154.155 37.0194C155.382 37.9701 156.888 38.4904 158.44 38.5002C161.9 38.5902 164.78 36.9302 165.56 33.5002C166.115 30.7717 166.156 27.9636 165.68 25.2202C165.445 24.0228 164.856 22.9235 163.99 22.0643C163.123 21.205 162.019 20.6254 160.82 20.4002C155.2 18.9302 150.93 22.8002 151 30.0002Z" fill="#121212"/>
<path d="M102.41 33.4302C104.52 39.7502 109.71 40.0302 117.94 34.5002L120.83 38.4002C117.53 43.1202 111.18 45.3202 105.21 43.9202C102.545 43.2169 100.149 41.7346 98.3306 39.663C96.5119 37.5913 95.3523 35.0243 95 32.2902C94.24 26.8102 95.28 21.8402 99.48 17.8902C101.529 15.9759 104.135 14.7659 106.92 14.4367C109.704 14.1075 112.521 14.6763 114.96 16.0602C120.89 19.6602 120.85 27.4502 114.66 30.5602C112.06 31.8702 108.99 32.2802 106.11 33.0102C104.886 33.2257 103.651 33.366 102.41 33.4302V33.4302ZM101.61 29.0402C104.46 28.5002 107.08 28.2002 109.61 27.4802C112.14 26.7602 113.52 24.4102 112.84 22.4002C112.24 20.6102 109.84 19.7002 107.31 20.3002C103.78 21.1602 101.9 23.8402 101.61 29.0002V29.0402Z" fill="#121212"/>
<path d="M19.4 43.8002H12.49V9.51018H0.559998V3.18018H31.12V9.34018H19.4V43.8002Z" fill="#121212"/>
<path d="M134.78 43.79H128.32V20.74L124.49 20.43V14.9L128.15 14.52C128.31 9.65003 127.62 4.34003 132.99 1.61003C136.17 -0.00997066 139.55 0.120028 143.23 1.39003L142 6.13003C139.63 6.55003 136.69 6.23002 135.79 7.43002C134.55 9.09002 134.79 11.9 134.39 14.65H140.87V20.51H134.74L134.78 43.79Z" fill="#121212"/>
<path d="M185.72 43.8398H179.24V14.9998H185.55V20.2898C188.71 16.2898 192.11 13.4998 197.67 14.6698C197.38 16.7998 197.1 18.8198 196.81 20.9298C196.482 21.0129 196.147 21.0664 195.81 21.0898C189.81 20.8498 186.64 23.3398 186.03 29.4098C185.64 33.2098 185.82 37.0498 185.75 40.8698C185.7 41.7898 185.72 42.7698 185.72 43.8398Z" fill="#121212"/>
</svg>
